# xmcd CD database file
#
# Track frame offsets:
#	150
#	37242
#	70191
#	93036
#	119329
#	135598
#	166170
#	173481
#	189741
#	226079
#
# Disc length: 3214 seconds
#
# Revision: 0
# Processed by: cddbd v1.5.1PL2 Copyright (c) Steve Scherf et al.
# Submitted via: CDex 1.51
#
DISCID=7a0c8c0a
DTITLE=Adam Pieroñczyk - Busem po Sao Paulo
DYEAR=2006
DGENRE=Jazz
TTITLE0=Touched by Tupinamba
TTITLE1=Busem po Sao Paulo
TTITLE2=U-au-au-aa
TTITLE3=Rynek 28
TTITLE4=Von Freeman
TTITLE5=Garota de Cracovia
TTITLE6=Boubker's
TTITLE7=Braniewo
TTITLE8=Desmodus rotundus
TTITLE9=My coctailbar
EXTD=YEAR: 2006
EXTT0=
EXTT1=
EXTT2=
EXTT3=
EXTT4=
EXTT5=
EXTT6=
EXTT7=
EXTT8=
EXTT9=
PLAYORDER=
